<svg width="27" height="27" viewBox="0 0 27 27" fill="none" xmlns="http://www.w3.org/2000/svg">
<path d="M25.9783 14.4023L16.2818 19.2505C15.5977 19.5926 14.7854 19.7636 13.8448 19.7636C12.9042 19.7636 12.0919 19.5926 11.4079 19.2505L1.71137 14.4023C1.04442 14.0603 0.710938 13.6541 0.710938 13.1838C0.710938 12.7135 1.04442 12.3159 1.71137 11.991L4.22528 10.734L11.4079 14.3253C12.0919 14.6674 12.9042 14.8384 13.8448 14.8384C14.7854 14.8384 15.5977 14.6674 16.2818 14.3253L23.4644 10.734L25.9783 11.991C26.6452 12.3159 26.9787 12.7178 26.9787 13.1966C26.9787 13.6755 26.6452 14.0774 25.9783 14.4023ZM25.9783 7.83534L16.2818 12.6836C15.5977 13.0256 14.7854 13.1966 13.8448 13.1966C12.9042 13.1966 12.0919 13.0256 11.4079 12.6836L1.71137 7.83534C1.04442 7.49331 0.710938 7.08715 0.710938 6.61686C0.710938 6.14657 1.04442 5.74042 1.71137 5.39839L11.4079 0.550135C12.0919 0.225208 12.9042 0.0627441 13.8448 0.0627441C14.7854 0.0627441 15.5977 0.225208 16.2818 0.550135L25.9783 5.39839C26.6452 5.74042 26.9787 6.14657 26.9787 6.61686C26.9787 7.08715 26.6452 7.49331 25.9783 7.83534ZM13.8448 1.70448L2.35267 6.62969L13.8448 11.5549L25.337 6.62969L13.8448 1.70448ZM1.71137 18.5579L4.22528 17.301L6.02093 18.1988L2.35267 19.7636L13.8448 24.6888L25.337 19.7636L21.6687 18.1988L23.4644 17.301L25.9783 18.5579C26.6452 18.8829 26.9787 19.2847 26.9787 19.7636C26.9787 20.2424 26.6452 20.6443 25.9783 20.9692L16.2818 25.8175C15.5977 26.1595 14.7854 26.3305 13.8448 26.3305C12.9042 26.3305 12.0919 26.1595 11.4079 25.8175L1.71137 20.9692C1.04442 20.6443 0.710938 20.2424 0.710938 19.7636C0.710938 19.2847 1.04442 18.8829 1.71137 18.5579Z" fill="white"/>
</svg>
