<svg width="27" height="21" viewBox="0 0 27 21" fill="none" xmlns="http://www.w3.org/2000/svg">
<path d="M1.97852 7.96816H25.5144H1.97852ZM7.20871 14.5059H8.51626H7.20871ZM13.7465 14.5059H15.054H13.7465ZM5.90116 19.7361H21.5917C22.6321 19.7361 23.6298 19.3228 24.3655 18.5872C25.1011 17.8515 25.5144 16.8538 25.5144 15.8135V5.35307C25.5144 4.31272 25.1011 3.31498 24.3655 2.57934C23.6298 1.8437 22.6321 1.43042 21.5917 1.43042H5.90116C4.86081 1.43042 3.86307 1.8437 3.12743 2.57934C2.39179 3.31498 1.97852 4.31272 1.97852 5.35307V15.8135C1.97852 16.8538 2.39179 17.8515 3.12743 18.5872C3.86307 19.3228 4.86081 19.7361 5.90116 19.7361Z" stroke="white" stroke-width="2" stroke-linecap="round" stroke-linejoin="round"/>
</svg>
