<svg width="29" height="27" viewBox="0 0 29 27" fill="none" xmlns="http://www.w3.org/2000/svg">
<path d="M1.71094 1.24341L2.80334 4.73706M2.80334 4.73706L7.17294 18.7116H27.2003V8.2307C27.2003 7.30413 26.8166 6.41551 26.1338 5.76032C25.4509 5.10514 24.5247 4.73706 23.5589 4.73706H2.80334ZM23.5589 25.6989C23.0761 25.6989 22.613 25.5149 22.2715 25.1873C21.9301 24.8597 21.7383 24.4154 21.7383 23.9521C21.7383 23.4888 21.9301 23.0445 22.2715 22.7169C22.613 22.3893 23.0761 22.2053 23.5589 22.2053C24.0418 22.2053 24.5049 22.3893 24.8463 22.7169C25.1878 23.0445 25.3796 23.4888 25.3796 23.9521C25.3796 24.4154 25.1878 24.8597 24.8463 25.1873C24.5049 25.5149 24.0418 25.6989 23.5589 25.6989ZM8.99361 23.9521C8.99361 23.4888 9.18543 23.0445 9.52687 22.7169C9.86831 22.3893 10.3314 22.2053 10.8143 22.2053C11.2971 22.2053 11.7602 22.3893 12.1017 22.7169C12.4431 23.0445 12.6349 23.4888 12.6349 23.9521C12.6349 24.4154 12.4431 24.8597 12.1017 25.1873C11.7602 25.5149 11.2971 25.6989 10.8143 25.6989C10.3314 25.6989 9.86831 25.5149 9.52687 25.1873C9.18543 24.8597 8.99361 24.4154 8.99361 23.9521Z" stroke="white" stroke-width="2"/>
</svg>
