<?xml version="1.0" encoding="utf-8"?>
<!-- Generator: Adobe Illustrator 25.4.1, SVG Export Plug-In . SVG Version: 6.00 Build 0)  -->
<svg version="1.1" id="Layer_1" xmlns="http://www.w3.org/2000/svg" xmlns:xlink="http://www.w3.org/1999/xlink" x="0px" y="0px"
	 viewBox="0 0 352 157" style="enable-background:new 0 0 352 157;" xml:space="preserve">
<style type="text/css">
	.st0{fill:#FFFFFF;}
	.st1{fill:url(#SVGID_1_);}
	.st2{fill:url(#SVGID_00000111905041919853209260000017080643740148311946_);}
	.st3{fill:url(#SVGID_00000047034468064909902360000007150878660865231264_);}
	.st4{fill:#4F76C1;}
	.st5{fill:url(#SVGID_00000016058472096910184280000011999846027833224893_);}
</style>
<path class="st0" d="M313.2,0.2H12.9v156.3h300.3V0.2z"/>
<path class="st0" d="M290.4,156.4h61.4V151c-2.7,0-4.9-2.2-4.9-4.9c0-2.7,2.2-4.9,4.9-4.9v-5.3c-2.7,0-4.9-2.2-4.9-4.9
	c0-2.7,2.2-4.9,4.9-4.9v-5.3c-2.7,0-4.9-2.2-4.9-4.9c0-2.7,2.2-4.9,4.9-4.9v-5.3c-2.7,0-4.9-2.2-4.9-4.9c0-2.7,2.2-4.9,4.9-4.9v-5.3
	c-2.7,0-4.9-2.2-4.9-4.9c0-2.7,2.2-4.9,4.9-4.9v-5.3c-2.7,0-4.9-2.2-4.9-4.9s2.2-4.9,4.9-4.9v-5.3c-2.7,0-4.9-2.2-4.9-4.9
	c0-2.7,2.2-4.9,4.9-4.9V45c-2.7,0-4.9-2.2-4.9-4.9s2.2-4.9,4.9-4.9v-5.3c-2.7,0-4.9-2.2-4.9-4.9c0-2.7,2.2-4.9,4.9-4.9v-5.3
	c-2.7,0-4.9-2.2-4.9-4.9c0-2.7,2.2-4.9,4.9-4.9V0.4h-61.4V156.4z"/>
<linearGradient id="SVGID_1_" gradientUnits="userSpaceOnUse" x1="3.2539" y1="157.5909" x2="58.4144" y2="1.4178" gradientTransform="matrix(1 0 0 -1 0 158)">
	<stop  offset="0" style="stop-color:#F4BD58"/>
	<stop  offset="1" style="stop-color:#F1913A"/>
</linearGradient>
<path class="st1" d="M61.5,0.2H0v5.5C2.8,5.6,5,7.8,5,10.6c0,2.7-2.2,4.9-4.9,4.9v5.3C2.8,20.8,5,23,5,25.7c0,2.7-2.2,4.9-4.9,4.9
	V36C2.8,36,5,38.2,5,40.9c0,2.7-2.2,4.9-4.9,4.9v5.3c2.7,0,4.9,2.2,4.9,4.9S2.8,61,0,61v5.3c2.7,0,4.9,2.2,4.9,4.9S2.8,76.2,0,76.2
	v5.3c2.7,0,4.9,2.2,4.9,4.9c0,2.7-2.2,4.9-4.9,4.9v5.3c2.7,0,4.9,2.2,4.9,4.9c0,2.7-2.2,4.9-4.9,4.9v5.3c2.7,0,4.9,2.2,4.9,4.9
	s-2.2,4.9-4.9,4.9v5.3c2.7,0,4.9,2.2,4.9,4.9c0,2.7-2.2,4.9-4.9,4.9v5.3c2.7,0,4.9,2.2,4.9,4.9S2.8,152,0,152v4.4h61.4V0.2z"/>
<linearGradient id="SVGID_00000155145526246513126490000017993626453658469822_" gradientUnits="userSpaceOnUse" x1="89.8266" y1="141.8074" x2="89.8266" y2="110.2048" gradientTransform="matrix(1 0 0 -1 0 158)">
	<stop  offset="0" style="stop-color:#729AE7"/>
	<stop  offset="1" style="stop-color:#5179C3"/>
</linearGradient>
<path style="fill:url(#SVGID_00000155145526246513126490000017993626453658469822_);" d="M89.8,42.3l-10.2,5.5l1.9-11.4l-8.3-8.1
	l11.4-1.7l5.1-10.4l5.1,10.4l11.4,1.7l-8.3,8.1l1.9,11.4L89.8,42.3z"/>
<linearGradient id="SVGID_00000067227733255537013040000013573706554639404712_" gradientUnits="userSpaceOnUse" x1="304.4865" y1="141.8076" x2="304.4865" y2="110.205" gradientTransform="matrix(1 0 0 -1 0 158)">
	<stop  offset="0" style="stop-color:#729AE7"/>
	<stop  offset="1" style="stop-color:#5179C3"/>
</linearGradient>
<path style="fill:url(#SVGID_00000067227733255537013040000013573706554639404712_);" d="M304.5,42.3l-10.3,5.5l1.9-11.4l-8.3-8.1
	l11.4-1.7l5.2-10.4l5.1,10.4l11.4,1.7l-8.3,8.1l1.9,11.4L304.5,42.3z"/>
<path class="st4" d="M140.8,23.3c0.2,0.1,0.4,0.2,0.7,0.2c0.4,0,0.7-0.2,0.9-0.6l0.6-1.1c0.1-0.2,0.2-0.4,0.2-0.6
	c0-0.4-0.2-0.7-0.6-0.9c-1.8-1-3.6-1.5-5.5-1.5c-3.4,0-6,1-7.9,3.1s-2.8,4.6-2.8,7.8c0,3.3,1,5.9,3,7.9c2,2,4.6,3,7.8,3
	c2.2,0,4.3-0.6,6.1-1.8c0.3-0.2,0.4-0.5,0.4-0.8c0-0.3-0.1-0.5-0.2-0.7l-0.5-0.8c-0.2-0.3-0.5-0.5-1-0.5c-0.2,0-0.4,0.1-0.7,0.2
	c-1.3,0.7-2.6,1.1-3.8,1.1c-2.1,0-3.9-0.7-5.2-2.1c-1.3-1.4-2-3.1-2-5.3c0-2.2,0.7-4,1.9-5.4s2.9-2,4.9-2
	C138.3,22.3,139.5,22.6,140.8,23.3z M145,29.7c0,3.2,1,5.8,3.1,7.8c2.1,2,4.7,3,7.8,3c3.1,0,5.8-1,7.8-3.1c2.1-2,3.1-4.6,3.1-7.8
	c0-3.2-1-5.8-3.1-7.8c-2.1-2-4.7-3-7.9-3c-3.2,0-5.8,1-7.8,3.1C146,24,145,26.6,145,29.7z M148.9,29.7c0-2.2,0.7-3.9,2-5.3
	c1.3-1.4,3-2.1,5-2.1c2,0,3.7,0.7,5,2.1c1.4,1.4,2,3.1,2,5.3c0,2.1-0.6,3.9-1.9,5.3c-1.3,1.4-3,2.1-5.2,2.1c-2,0-3.6-0.7-5-2.1
	C149.6,33.5,148.9,31.8,148.9,29.7z M184.4,30.7c0,4.2-1.6,6.3-4.7,6.3c-3.5,0-5.2-2.5-5.2-6.6V20.3c0-0.6-0.5-1.1-1.1-1.1h-1.5
	c-0.6,0-1.1,0.5-1.1,1.1v11c0,3,0.8,5.2,2.5,6.8c1.6,1.6,3.8,2.4,6.5,2.4c2.4,0,4.4-0.8,6-2.2c1.6-1.5,2.4-3.8,2.4-6.8V20.3
	c0-0.6-0.5-1.1-1.1-1.1h-1.4c-0.6,0-1.1,0.5-1.1,1.1V30.7z M199.6,19.1c-1.2,0-2.9,0-4.9,0.1c-0.6,0-1.1,0.5-1.1,1.1v18.8
	c0,0.6,0.5,1.1,1.1,1.1h1.5c0.6,0,1.1-0.5,1.1-1.1v-6.5c0.6,0.1,1.5,0.1,2.7,0.1c2.4,0,4.3-0.7,5.6-2c1.3-1.3,2-2.9,2-4.8
	C207.7,22.4,205.7,19.1,199.6,19.1z M197.3,22.6c1.3,0,2.2-0.1,2.6-0.1c2.6,0,3.9,1.1,3.9,3.3c0,2.2-1.6,3.4-3.9,3.4
	c-0.8,0-1.7-0.1-2.6-0.1V22.6z M210,29.7c0,3.2,1,5.8,3.1,7.8c2.1,2,4.7,3,7.8,3c3.1,0,5.8-1,7.8-3.1c2.1-2,3.1-4.6,3.1-7.8
	c0-3.2-1-5.8-3.1-7.8c-2.1-2-4.7-3-7.9-3c-3.2,0-5.8,1-7.8,3.1C211,24,210,26.6,210,29.7z M213.9,29.7c0-2.2,0.7-3.9,2-5.3
	c1.3-1.4,3-2.1,5-2.1c2,0,3.7,0.7,5,2.1c1.4,1.4,2,3.1,2,5.3c0,2.1-0.6,3.9-1.9,5.3c-1.3,1.4-3,2.1-5.2,2.1c-2,0-3.6-0.7-5-2.1
	C214.6,33.5,213.9,31.8,213.9,29.7z M251.8,19.2c-0.6,0-1.1,0.5-1.1,1.1v13.5l-11-13.9c-0.4-0.5-0.8-0.7-1.4-0.7h-1
	c-0.6,0-1.1,0.5-1.1,1.1v18.8c0,0.6,0.5,1.1,1.1,1.1h1.2c0.6,0,1.1-0.5,1.1-1.1V25.6l11,13.8c0.4,0.5,0.8,0.7,1.4,0.7h1
	c0.6,0,1.1-0.5,1.1-1.1V20.3c0-0.6-0.5-1.1-1.1-1.1H251.8z"/>
<linearGradient id="SVGID_00000121980418506770818150000012180978824966436785_" gradientUnits="userSpaceOnUse" x1="232.9339" y1="84.6241" x2="351.3609" y2="28.3732" gradientTransform="matrix(1 0 0 -1 0 158)">
	<stop  offset="0" style="stop-color:#F4B855"/>
	<stop  offset="1" style="stop-color:#F2973E"/>
</linearGradient>
<path style="fill:url(#SVGID_00000121980418506770818150000012180978824966436785_);" d="M351.8,80.4v-5.3c-1.8,0-3.5-1.1-4.3-2.6
	h-57H233l-32,28.2l31.9,28.1h57.5h57c0.8-1.7,2.5-2.8,4.5-2.8v-5.3c-2.7,0-4.9-2.2-4.9-4.9c0-2.7,2.2-4.9,4.9-4.9v-5.3
	c-2.7,0-4.9-2.2-4.9-4.9c0-2.7,2.2-4.9,4.9-4.9v-5.3c-2.7,0-4.9-2.2-4.9-4.9C346.9,82.6,349.1,80.4,351.8,80.4z"/>
<path class="st0" d="M314.1,89.4l-0.1-2.8l-2,1l-0.1,1.8c-7.7,0.7-13.8,9.2-13.8,19.6c0,0.7,0,1.3,0.1,2h2.7c0-0.5,0-1,0-1.4
	c0-9.4,4.8-17.1,11-17.9l-0.6,17.7l3.1-1.5l-0.4-16.2c6.1,0.8,11,8.6,11,17.9c0,0.5,0,1,0,1.4h2.9c0-0.7,0.1-1.3,0.1-2
	C328,98.6,321.8,90.1,314.1,89.4z"/>
</svg>
