<svg width="25" height="27" viewBox="0 0 25 27" fill="none" xmlns="http://www.w3.org/2000/svg">
<path d="M1.36328 25.3297V23.8409C1.36328 21.077 2.50767 18.4262 4.5447 16.4718C6.58173 14.5174 9.34453 13.4194 12.2253 13.4194V13.4194C15.1061 13.4194 17.8689 14.5174 19.906 16.4718C21.943 18.4262 23.0874 21.077 23.0874 23.8409V25.3297" stroke="white" stroke-width="2" stroke-linecap="round" stroke-linejoin="round"/>
<path d="M12.2245 13.419C13.8706 13.419 15.4494 12.7916 16.6134 11.6748C17.7774 10.558 18.4314 9.0433 18.4314 7.46391C18.4314 5.88451 17.7774 4.3698 16.6134 3.253C15.4494 2.1362 13.8706 1.50879 12.2245 1.50879C10.5783 1.50879 8.99955 2.1362 7.83554 3.253C6.67152 4.3698 6.01758 5.88451 6.01758 7.46391C6.01758 9.0433 6.67152 10.558 7.83554 11.6748C8.99955 12.7916 10.5783 13.419 12.2245 13.419V13.419Z" stroke="white" stroke-width="2" stroke-linecap="round" stroke-linejoin="round"/>
</svg>
